<svg width="15" height="15" viewBox="0 0 15 15" fill="none" xmlns="http://www.w3.org/2000/svg">
<path d="M2.17 9.66666V1.66666H0.83667V0.333328H2.83667C3.20486 0.333328 3.50334 0.631808 3.50334 0.999995V9H11.7956L13.129 3.66666H4.83667V2.33333H13.9828C14.351 2.33333 14.6495 2.63181 14.6495 2.99999C14.6495 3.0545 14.6428 3.10881 14.6295 3.16169L12.9629 9.82833C12.8888 10.1251 12.6221 10.3333 12.3161 10.3333H2.83667C2.46848 10.3333 2.17 10.0349 2.17 9.66666ZM3.50334 14.3333C2.76696 14.3333 2.17 13.7364 2.17 13C2.17 12.2636 2.76696 11.6667 3.50334 11.6667C4.23972 11.6667 4.83667 12.2636 4.83667 13C4.83667 13.7364 4.23972 14.3333 3.50334 14.3333ZM11.5033 14.3333C10.7669 14.3333 10.17 13.7364 10.17 13C10.17 12.2636 10.7669 11.6667 11.5033 11.6667C12.2397 11.6667 12.8367 12.2636 12.8367 13C12.8367 13.7364 12.2397 14.3333 11.5033 14.3333Z" fill="white"/>
</svg>
