<svg width="20" height="20" viewBox="0 0 20 20" fill="none" xmlns="http://www.w3.org/2000/svg">
<path d="M16.6667 18.3333H15V16.6667C15 15.2859 13.8808 14.1667 12.5 14.1667H7.50001C6.1193 14.1667 5.00001 15.2859 5.00001 16.6667V18.3333H3.33334V16.6667C3.33334 14.3655 5.19883 12.5 7.50001 12.5H12.5C14.8012 12.5 16.6667 14.3655 16.6667 16.6667V18.3333ZM10 10.8333C7.23858 10.8333 5.00001 8.59476 5.00001 5.83334C5.00001 3.07192 7.23858 0.833344 10 0.833344C12.7614 0.833344 15 3.07192 15 5.83334C15 8.59476 12.7614 10.8333 10 10.8333ZM10 9.16668C11.8409 9.16668 13.3333 7.67429 13.3333 5.83334C13.3333 3.99239 11.8409 2.50001 10 2.50001C8.15906 2.50001 6.66668 3.99239 6.66668 5.83334C6.66668 7.67429 8.15906 9.16668 10 9.16668Z" fill="#1E1F21"/>
</svg>
