<svg width="17" height="16" viewBox="0 0 17 16" fill="none" xmlns="http://www.w3.org/2000/svg">
<g clip-path="url(#clip0_217_344)">
<path fill-rule="evenodd" clip-rule="evenodd" d="M14.5 16C14.9624 15.9996 15.4103 15.8389 15.7675 15.5453C16.1247 15.2516 16.3691 14.8433 16.459 14.3897C16.5489 13.9361 16.4787 13.4654 16.2605 13.0578C16.0423 12.6501 15.6895 12.3307 15.2622 12.154C14.8349 11.9773 14.3595 11.9542 13.9171 12.0886C13.4747 12.2231 13.0926 12.5067 12.8358 12.8913C12.5791 13.2758 12.4636 13.7375 12.5091 14.1977C12.5545 14.6578 12.7581 15.088 13.0852 15.4149C13.271 15.6005 13.4916 15.7478 13.7344 15.8482C13.9771 15.9486 14.2373 16.0002 14.5 16ZM14.5 10C14.9624 9.9996 15.4103 9.83889 15.7675 9.54527C16.1247 9.25165 16.3691 8.84327 16.459 8.3897C16.5489 7.93613 16.4787 7.46543 16.2605 7.05778C16.0423 6.65012 15.6895 6.33074 15.2622 6.15402C14.8349 5.97731 14.3595 5.9542 13.9171 6.08863C13.4747 6.22306 13.0926 6.50672 12.8358 6.89128C12.5791 7.27584 12.4636 7.73752 12.5091 8.19767C12.5545 8.65781 12.7581 9.08797 13.0852 9.41486C13.271 9.60054 13.4916 9.74778 13.7344 9.84818C13.9771 9.94858 14.2373 10.0002 14.5 10ZM14.5 4C14.9624 3.9996 15.4103 3.83889 15.7675 3.54527C16.1247 3.25165 16.3691 2.84327 16.459 2.3897C16.5489 1.93613 16.4787 1.46543 16.2605 1.05778C16.0423 0.650125 15.6895 0.330738 15.2622 0.154023C14.8349 -0.0226907 14.3595 -0.0458006 13.9171 0.0886303C13.4747 0.223061 13.0926 0.506717 12.8358 0.891279C12.5791 1.27584 12.4636 1.73752 12.5091 2.19767C12.5545 2.65782 12.7581 3.08797 13.0852 3.41486C13.271 3.60054 13.4916 3.74778 13.7344 3.84818C13.9771 3.94858 14.2373 4.00017 14.5 4ZM8.50001 16C8.9624 15.9996 9.41035 15.8389 9.76754 15.5453C10.1247 15.2516 10.3691 14.8433 10.459 14.3897C10.5489 13.9361 10.4787 13.4654 10.2605 13.0578C10.0423 12.6501 9.68945 12.3307 9.26216 12.154C8.83488 11.9773 8.35954 11.9542 7.91712 12.0886C7.4747 12.2231 7.09258 12.5067 6.83583 12.8913C6.57909 13.2758 6.46362 13.7375 6.50908 14.1977C6.55454 14.6578 6.75812 15.088 7.08515 15.4149C7.271 15.6005 7.49161 15.7478 7.73437 15.8482C7.97714 15.9486 8.2373 16.0002 8.50001 16ZM8.50001 10C8.9624 9.9996 9.41035 9.83889 9.76754 9.54527C10.1247 9.25165 10.3691 8.84327 10.459 8.3897C10.5489 7.93613 10.4787 7.46543 10.2605 7.05778C10.0423 6.65012 9.68945 6.33074 9.26216 6.15402C8.83488 5.97731 8.35954 5.9542 7.91712 6.08863C7.4747 6.22306 7.09258 6.50672 6.83583 6.89128C6.57909 7.27584 6.46362 7.73752 6.50908 8.19767C6.55454 8.65781 6.75812 9.08797 7.08515 9.41486C7.271 9.60054 7.49161 9.74778 7.73437 9.84818C7.97714 9.94858 8.2373 10.0002 8.50001 10ZM8.50001 4C8.9624 3.9996 9.41035 3.83889 9.76754 3.54527C10.1247 3.25165 10.3691 2.84327 10.459 2.3897C10.5489 1.93613 10.4787 1.46543 10.2605 1.05778C10.0423 0.650125 9.68945 0.330738 9.26216 0.154023C8.83488 -0.0226907 8.35954 -0.0458006 7.91712 0.0886303C7.4747 0.223061 7.09258 0.506717 6.83583 0.891279C6.57909 1.27584 6.46362 1.73752 6.50908 2.19767C6.55454 2.65782 6.75812 3.08797 7.08515 3.41486C7.271 3.60054 7.49161 3.74778 7.73437 3.84818C7.97714 3.94858 8.2373 4.00017 8.50001 4ZM2.50001 16C2.9624 15.9996 3.41035 15.8389 3.76754 15.5453C4.12474 15.2516 4.36909 14.8433 4.45898 14.3897C4.54886 13.9361 4.47871 13.4654 4.26049 13.0578C4.04226 12.6501 3.68945 12.3307 3.26216 12.154C2.83488 11.9773 2.35954 11.9542 1.91712 12.0886C1.4747 12.2231 1.09258 12.5067 0.835835 12.8913C0.579093 13.2758 0.463616 13.7375 0.509077 14.1977C0.554537 14.6578 0.758123 15.088 1.08515 15.4149C1.271 15.6005 1.49161 15.7478 1.73437 15.8482C1.97714 15.9486 2.2373 16.0002 2.50001 16ZM2.50001 10C2.9624 9.9996 3.41035 9.83889 3.76754 9.54527C4.12474 9.25165 4.36909 8.84327 4.45898 8.3897C4.54886 7.93613 4.47871 7.46543 4.26049 7.05778C4.04226 6.65012 3.68945 6.33074 3.26216 6.15402C2.83488 5.97731 2.35954 5.9542 1.91712 6.08863C1.4747 6.22306 1.09258 6.50672 0.835835 6.89128C0.579093 7.27584 0.463616 7.73752 0.509077 8.19767C0.554537 8.65781 0.758123 9.08797 1.08515 9.41486C1.271 9.60054 1.49161 9.74778 1.73437 9.84818C1.97714 9.94858 2.2373 10.0002 2.50001 10ZM2.50001 4C2.9624 3.9996 3.41035 3.83889 3.76754 3.54527C4.12474 3.25165 4.36909 2.84327 4.45898 2.3897C4.54886 1.93613 4.47871 1.46543 4.26049 1.05778C4.04226 0.650125 3.68945 0.330738 3.26216 0.154023C2.83488 -0.0226907 2.35954 -0.0458006 1.91712 0.0886303C1.4747 0.223061 1.09258 0.506717 0.835835 0.891279C0.579093 1.27584 0.463616 1.73752 0.509077 2.19767C0.554537 2.65782 0.758123 3.08797 1.08515 3.41486C1.271 3.60054 1.49161 3.74778 1.73437 3.84818C1.97714 3.94858 2.2373 4.00017 2.50001 4Z" fill="#444A58"/>
</g>
<defs>
<clipPath id="clip0_217_344">
<rect width="16" height="16" fill="white" transform="translate(0.5)"/>
</clipPath>
</defs>
</svg>
