<svg width="15" height="15" viewBox="0 0 15 15" fill="none" xmlns="http://www.w3.org/2000/svg">
<path d="M10.3841 6.30502C10.3853 7.25823 10.1037 8.19036 9.57501 8.98349C9.04628 9.77662 8.29421 10.3951 7.41388 10.7607C6.53355 11.1262 5.56448 11.2224 4.62946 11.0371C3.69443 10.8518 2.83532 10.3933 2.16095 9.71964C1.48658 9.04597 1.02716 8.18736 0.840883 7.25253C0.654605 6.3177 0.749925 5.34863 1.11456 4.46793C1.4792 3.58722 2.09689 2.83446 2.88947 2.3049C3.68204 1.77535 4.61399 1.49281 5.5672 1.49301C6.84405 1.49248 8.06865 1.99912 8.97199 2.90152C9.87532 3.80392 10.3833 5.02818 10.3841 6.30502Z" stroke="#8E8E8E" stroke-width="1.5" stroke-linecap="round" stroke-linejoin="round"/>
<path d="M13.453 14.196L9.96199 10.708" stroke="#8E8E8E" stroke-width="1.5" stroke-linecap="round" stroke-linejoin="round"/>
</svg>
