<svg width="18" height="19" viewBox="0 0 18 19" fill="none" xmlns="http://www.w3.org/2000/svg">
<path d="M2.33738 12.3333V2.33332H0.670715V0.666656H3.17072C3.63096 0.666656 4.00405 1.03976 4.00405 1.49999V11.5H14.3694L16.0361 4.83332H5.67072V3.16666H17.1034C17.5636 3.16666 17.9367 3.53976 17.9367 3.99999C17.9367 4.06812 17.9284 4.13601 17.9118 4.20211L15.8285 12.5354C15.7358 12.9064 15.4025 13.1667 15.0201 13.1667H3.17072C2.71048 13.1667 2.33738 12.7936 2.33738 12.3333ZM4.00405 18.1667C3.08357 18.1667 2.33738 17.4205 2.33738 16.5C2.33738 15.5795 3.08357 14.8333 4.00405 14.8333C4.92452 14.8333 5.67072 15.5795 5.67072 16.5C5.67072 17.4205 4.92452 18.1667 4.00405 18.1667ZM14.0041 18.1667C13.0836 18.1667 12.3374 17.4205 12.3374 16.5C12.3374 15.5795 13.0836 14.8333 14.0041 14.8333C14.9246 14.8333 15.6707 15.5795 15.6707 16.5C15.6707 17.4205 14.9246 18.1667 14.0041 18.1667Z" fill="#1E1F21"/>
</svg>
